<svg id="b758916f-75f6-440c-9493-204d2bdf0d4e" data-name="Слой 1" xmlns="http://www.w3.org/2000/svg" viewBox="0 0 313.39836 800"><path d="M500.007,100a65.52341,65.52341,0,1,0,65.50218,65.53071A65.50393,65.50393,0,0,0,500.007,100ZM427.63612,247.85617c-46.38407,0-84.3353,37.58974-84.3353,83.91122V534.97577a28.35164,28.35164,0,0,0,28.29484,28.6633,28.67432,28.67432,0,0,0,28.69109-28.6633V351.75453H414.9s.3337,478.37736.3337,509.80065a38.43441,38.43441,0,1,0,76.86882,0V565.53h15.78115V861.55518a38.51442,38.51442,0,0,0,77.02871,0V351.75451h14.787V534.97577a28.6951,28.6951,0,0,0,28.68415,28.6633,28.35607,28.35607,0,0,0,28.31568-28.6633V331.76739c0-46.32148-37.979-83.91122-84.32138-83.91122Z" transform="translate(-343.30082 -100)"/></svg>