<svg id="b8e4ba04-9d57-4244-a64b-36752f1855f0" data-name="Слой 1" xmlns="http://www.w3.org/2000/svg" viewBox="0 0 800 443.10223"><path d="M732.83556,387.21331a165.83672,165.83672,0,0,0-71.62666,16.35556l-32.60443-56.62221,29.78668-48.4a13.1843,13.1843,0,0,0-11.22664-20.09778H572.2934a13.19111,13.19111,0,1,0,0,26.38221h51.27112l-17.6711,28.72H387.52l-4.88889-8.94223h10.96a13.1911,13.1911,0,1,0,0-26.3822H294a13.1911,13.1911,0,1,0,0,26.3822H352.5689l11.65334,21.31557-29.84,55.52888a166.11085,166.11085,0,0,0-67.21778-14.22221C174.99556,387.21331,100,462.20887,100,554.38664c0,92.16888,74.99556,167.16448,167.16444,167.16448,87.72444,0,159.73335-67.96445,166.49781-153.97333H480v18.82667H459.28a13.19112,13.19112,0,1,0,0,26.38224H517.2a13.19112,13.19112,0,0,0,0-26.38224H506.37336v-28.48l106.8711-184.81782,25.06666,43.53778a167.05733,167.05733,0,0,0-72.64,137.73333c0,92.16888,74.99555,167.1644,167.17332,167.1644C825.00448,721.54223,900,646.55552,900,554.38664,900,462.20887,825.00448,387.21331,732.83556,387.21331Zm-353.51112-13.68L470.96,541.19555H433.66225a167.08888,167.08888,0,0,0-76.08-127.2Zm27.96445,167.6622H289.21778L345.09333,437.2222A140.84751,140.84751,0,0,1,407.28889,541.19552ZM267.16444,695.16887c-77.63556,0-140.79111-63.16443-140.79111-140.79111,0-77.63557,63.16445-140.79112,140.79111-140.79112a140.05369,140.05369,0,0,1,54.73779,11.07554L255.54667,548.13772A13.17849,13.17849,0,0,0,267.15558,567.56H407.28889C400.61334,639.02663,340.34666,695.16887,267.16444,695.16887ZM493.51112,527.48,401.92888,359.91553h188.48Zm239.32444,167.6889c-77.63557,0-140.8-63.16443-140.8-140.79111a140.60458,140.60458,0,0,1,59.50222-114.74668l69.86664,121.32447a13.18247,13.18247,0,0,0,22.85332-13.1467L674.38219,426.45773a139.79208,139.79208,0,0,1,58.45337-12.86221c77.62668,0,140.79108,63.16444,140.79108,140.79112S810.46224,695.16887,732.83556,695.16887Z" transform="translate(-100 -278.44888)"/></svg>