<svg id="bfae4f80-9a96-4829-a147-8c9b86c3893b" data-name="Слой 1" xmlns="http://www.w3.org/2000/svg" viewBox="0 0 800 662.56324"><defs><style>.b38bbc1c-1b0a-4750-9064-15e115f8ad0e{fill:#fff;}</style></defs><path id="ebea474a-c66d-4e6a-9835-a00dea2df346" data-name="path2072" d="M500.06806,700.46873H283.99728v68.18632c0,83.00753-120.0833,83.9952-120.0833,0V700.46873H100V486.93415c0-57.3137,46.10087-87.60156,72.13493-90.90684l65.712-167.83787c12.37165-31.96008,39.17688-59.27667,89.69443-59.27667,331.91061-.44138,14.08326.008,344.85959,0,50.51755,0,77.32278,27.31659,89.69443,59.27667l65.72228,167.83581C853.85174,399.33053,900,429.61838,900,486.9321V700.46672H836.086V768.653c0,83.9952-120.08332,83.00752-120.08332,0V700.46672H499.93189Z" transform="translate(-100 -168.71838)"/><g id="e558755c-c8e7-4ae4-b9dc-07807203fa77" data-name="g2074"><path id="b98f43fb-61ec-46e1-a654-c633ed5b78a7" data-name="path2076" class="b38bbc1c-1b0a-4750-9064-15e115f8ad0e" d="M499.92374,392.0766H240.16043l49.48246-129.861c6.18582-18.55746,15.46868-31.96008,37.11906-32.16009H673.168c21.65038.2,30.92912,13.60263,37.11494,32.16009l49.48242,129.861H499.92374Z" transform="translate(-100 -168.71838)"/><g id="f449d006-f684-46af-acaa-56188008e936" data-name="g2078"><g id="b7e4608f-5fc1-492a-9ae7-25ffdfb5a841" data-name="g2080"><path id="f9d59307-50de-480c-bd1e-a903cb2484a6" data-name="path2082" class="b38bbc1c-1b0a-4750-9064-15e115f8ad0e" d="M225.85674,569.919c-30.63219,0-55.46827-25.34332-55.46827-56.60027s24.83607-56.59822,55.46827-56.59822S281.323,482.06174,281.323,513.31872,256.48894,569.919,225.85674,569.919Z" transform="translate(-100 -168.71838)"/></g><g id="b566f2de-0684-428e-b5eb-4c4263917897" data-name="g2086"><path id="ec8e8434-3ce9-49df-99dc-8dd2250949e3" data-name="path2088" class="b38bbc1c-1b0a-4750-9064-15e115f8ad0e" d="M774.1,569.919c30.63216,0,55.46619-25.34332,55.46619-56.60027S804.73214,456.7205,774.1,456.7205s-55.46827,25.34124-55.46827,56.59822S743.46781,569.919,774.1,569.919Z" transform="translate(-100 -168.71838)"/></g></g></g></svg>