<svg id="aef3974f-fda3-424e-b55d-76ae090815a4" data-name="Слой 1" xmlns="http://www.w3.org/2000/svg" viewBox="0 0 800 799.99427"><defs><style>.ea4ad15b-b9d2-4d5f-9eed-c5afb735aebf{fill-rule:evenodd;}</style></defs><path class="ea4ad15b-b9d2-4d5f-9eed-c5afb735aebf" d="M208.25493,788.48689c.0651-26.23734,14.97416-51.88876,39.25836-80.60007L107.08165,619.08351c-8.85429-3.84118-8.659-9.24491-3.51567-15.62523l29.753-25.391c5.40372-3.32037,11.133-4.75269,17.318-3.05994l173.30971,29.29728L468.34971,447.92224,131.23563,219.85918c-8.52876-5.01309-9.24492-10.67722-.45573-17.25284l48.63349-38.80262L618.8726,287.308,748.69213,148.504c43.55531-37.69584,85.87361-54.55806,118.361-46.55013,17.90389,4.42714,24.21909,9.76576,29.753,26.56287,10.74235,32.94316-5.92458,77.21461-45.31312,122.78816L712.689,381.12445,836.19337,820.58369l-38.80262,48.63349c-6.57563,8.72406-12.23974,8.008-17.25286-.45573l-228.12817-337.049-156.38239,144.338,29.29728,173.30972c1.69272,6.11989.32552,11.84912-3.05994,17.318l-25.391,29.753c-6.3152,5.1433-11.784,5.33861-15.62523-3.51568L292.04514,752.48384c-28.84155,24.34928-54.49294,39.25835-80.8605,39.25835-2.40887-.06517-2.92971-.91152-2.92971-3.2553Z" transform="translate(-100 -100.00286)"/></svg>